<svg width="36" height="37" viewBox="0 0 36 37" fill="none" xmlns="http://www.w3.org/2000/svg">
<path d="M17.6026 4.09447C22.3027 4.09447 22.8586 4.11297 24.7177 4.1993C26.4347 4.27947 27.3673 4.56314 27.985 4.80364C28.8064 5.1243 29.3932 5.50047 30.0108 6.11714C30.6284 6.7338 31.0052 7.31964 31.3264 8.1398C31.5672 8.75647 31.8514 9.68764 31.9317 11.402C32.0181 13.2581 32.0366 13.8131 32.0366 18.506C32.0366 23.1988 32.0181 23.7538 31.9317 25.61C31.8514 27.3243 31.5672 28.2555 31.3264 28.8721C31.0052 29.6923 30.6284 30.2781 30.0108 30.8948C29.3932 31.5115 28.8064 31.8876 27.985 32.2083C27.3673 32.4488 26.4347 32.7325 24.7177 32.8126C22.8648 32.899 22.3027 32.9175 17.6026 32.9175C12.9024 32.9175 12.3465 32.899 10.4874 32.8126C8.7704 32.7325 7.83777 32.4488 7.22013 32.2083C6.39868 31.8876 5.81193 31.5115 5.1943 30.8948C4.57666 30.2781 4.19991 29.6923 3.87874 28.8721C3.63786 28.2555 3.35375 27.3243 3.27346 25.61C3.18699 23.7538 3.16846 23.1988 3.16846 18.506C3.16846 13.8131 3.18699 13.2581 3.27346 11.402C3.35375 9.68764 3.63786 8.75647 3.87874 8.1398C4.19991 7.31964 4.57666 6.7338 5.1943 6.11714C5.81193 5.50047 6.39868 5.11814 7.22013 4.80364C7.83777 4.56314 8.7704 4.27947 10.4874 4.1993C12.3465 4.11297 12.9024 4.09447 17.6026 4.09447ZM17.6026 0.924805C12.8221 0.924805 12.223 0.943305 10.3454 1.02964C8.47393 1.11597 7.18925 1.41197 6.07134 1.84364C4.91636 2.2938 3.93433 2.89197 2.95229 3.87247C1.97643 4.8468 1.37115 5.8273 0.920274 6.98664C0.48793 8.1028 0.18529 9.3793 0.104998 11.254C0.018529 13.1286 0 13.7268 0 18.4998C0 23.2728 0.018529 23.871 0.104998 25.7456C0.191466 27.6141 0.48793 28.8968 0.920274 30.013C1.37115 31.1661 1.97025 32.1466 2.95229 33.1271C3.92815 34.1015 4.91019 34.7058 6.07134 35.156C7.18925 35.5876 8.46775 35.8898 10.3454 35.97C12.223 36.0563 12.8221 36.0748 17.6026 36.0748C22.383 36.0748 22.9821 36.0563 24.8597 35.97C26.7312 35.8836 28.0159 35.5876 29.1338 35.156C30.2887 34.7058 31.2708 34.1076 32.2528 33.1271C33.2349 32.1466 33.834 31.1723 34.2848 30.013C34.7172 28.8968 35.0198 27.6203 35.1001 25.7456C35.1866 23.871 35.2051 23.2728 35.2051 18.4998C35.2051 13.7268 35.1866 13.1286 35.1001 11.254C35.0136 9.38547 34.7172 8.1028 34.2848 6.98664C33.834 5.83347 33.2349 4.85297 32.2528 3.87247C31.2708 2.89197 30.2949 2.2938 29.1338 1.84364C28.0159 1.41197 26.7374 1.1098 24.8597 1.02964C22.9821 0.943305 22.383 0.924805 17.6026 0.924805ZM17.6026 9.4718C12.6121 9.4718 8.5604 13.511 8.5604 18.4998C8.5604 23.4886 12.6059 27.5216 17.6026 27.5216C22.5992 27.5216 26.6447 23.4825 26.6447 18.4998C26.6447 13.5171 22.5992 9.4718 17.6026 9.4718ZM17.6026 24.3581C14.36 24.3581 11.735 21.7373 11.735 18.4998C11.735 15.2623 14.36 12.6415 17.6026 12.6415C20.8451 12.6415 23.4701 15.2623 23.4701 18.4998C23.4701 21.7373 20.8451 24.3581 17.6026 24.3581ZM26.9968 7.0113C25.8294 7.0113 24.8845 7.9548 24.8845 9.12031C24.8845 10.2858 25.8294 11.2293 26.9968 11.2293C28.1641 11.2293 29.1091 10.2858 29.1091 9.12031C29.1091 7.9548 28.1641 7.0113 26.9968 7.0113Z" fill="#10101A"/>
</svg>
