<svg width="60" height="69" viewBox="0 0 60 69" fill="none" xmlns="http://www.w3.org/2000/svg">
    <path d="M47.602 10.81C44.9863 7.81855 43.5448 3.97682 43.5459 0H31.7219V47.5333C31.6307 50.1056 30.5467 52.542 28.6981 54.3296C26.8495 56.1171 24.3805 57.1163 21.8112 57.1167C16.3776 57.1167 11.8622 52.67 11.8622 47.15C11.8622 40.5567 18.2143 35.6117 24.7577 37.6433V25.53C11.5561 23.7667 0 34.04 0 47.15C0 59.915 10.5612 69 21.773 69C33.7883 69 43.5459 59.225 43.5459 47.15V23.0383C48.3406 26.4878 54.0971 28.3385 60 28.3283V16.4833C60 16.4833 52.8061 16.8283 47.602 10.81Z" fill="white"/>
    </svg>
    