<svg width="39" height="39" viewBox="0 0 39 39" fill="none" xmlns="http://www.w3.org/2000/svg">
<path d="M20.7187 12.1875V23.4129L25.5938 18.5379L27.3175 20.2617L19.5 28.0792L11.6825 20.2617L13.4062 18.5379L18.2812 23.4129V12.1875H7.00781C6.76539 12.1875 6.53289 12.2838 6.36147 12.4552C6.19005 12.6266 6.09375 12.8591 6.09375 13.1016V35.6484C6.09375 35.8909 6.19005 36.1234 6.36147 36.2948C6.53289 36.4662 6.76539 36.5625 7.00781 36.5625H31.9922C32.2346 36.5625 32.4671 36.4662 32.6385 36.2948C32.8099 36.1234 32.9062 35.8909 32.9062 35.6484V13.1016C32.9062 12.8591 32.8099 12.6266 32.6385 12.4552C32.4671 12.2838 32.2346 12.1875 31.9922 12.1875H20.7187ZM18.2812 2.4375H20.7187V12.1875H18.2812V2.4375Z" fill="#FFFDFD"/>
</svg>
