<svg width="28" height="24" viewBox="0 0 28 24" fill="none" xmlns="http://www.w3.org/2000/svg">
<path d="M0 0.916163C0 1.41617 0.412541 1.84378 0.898066 1.84378H4.99811L6.93918 15.2472C7.19437 16.9805 8.10382 18.067 9.8632 18.067H24.0211C24.4937 18.067 24.9062 17.6764 24.9062 17.1519C24.9062 16.6269 24.4937 16.2362 24.0211 16.2362H10.0692C9.37768 16.2362 8.95323 15.7477 8.84401 15.0034L8.64991 13.7216H24.0449C25.8162 13.7216 26.7261 12.6226 26.9808 10.8773L27.9513 4.41935C27.9771 4.266 27.9933 4.11119 28 3.9558C28 3.36986 27.5631 2.96672 26.8959 2.96672H7.09705L6.85429 1.41669C6.73317 0.476571 6.39361 0 5.15651 0H0.897549C0.412541 0 0 0.427612 0 0.916163ZM8.84453 22.0223C8.84453 23.1333 9.71827 23.9999 10.8218 23.9999C11.0805 24.0021 11.3371 23.9524 11.5765 23.8538C11.8159 23.7552 12.0334 23.6096 12.2163 23.4255C12.3993 23.2414 12.544 23.0226 12.642 22.7816C12.74 22.5407 12.7894 22.2826 12.7872 22.0223C12.7883 21.7623 12.7382 21.5046 12.6398 21.2642C12.5415 21.0237 12.3967 20.8053 12.214 20.6214C12.0313 20.4376 11.8142 20.2919 11.5752 20.1929C11.3363 20.0939 11.0802 20.0435 10.8218 20.0447C9.71827 20.0447 8.84453 20.9238 8.84453 22.0223ZM20.1876 22.0223C20.1876 23.1333 21.0732 23.9999 22.1649 23.9999C23.269 23.9999 24.1422 23.1333 24.1422 22.0223C24.1422 20.9233 23.269 20.0447 22.1649 20.0447C21.0732 20.0447 20.1876 20.9238 20.1876 22.0223Z" fill="black"/>
</svg>
