<svg width="27" height="19" viewBox="0 0 27 19" fill="none" xmlns="http://www.w3.org/2000/svg">
<path d="M22.0909 2.53333H12.2727V11.4H2.45455V0H0V19H2.45455V15.2H24.5455V19H27V7.6C27 6.25624 26.4828 4.96751 25.5622 4.01733C24.6415 3.06714 23.3929 2.53333 22.0909 2.53333ZM7.36364 10.1333C8.34012 10.1333 9.2766 9.73298 9.96708 9.02034C10.6576 8.3077 11.0455 7.34116 11.0455 6.33333C11.0455 5.32551 10.6576 4.35897 9.96708 3.64633C9.2766 2.93369 8.34012 2.53333 7.36364 2.53333C6.38716 2.53333 5.45067 2.93369 4.7602 3.64633C4.06972 4.35897 3.68182 5.32551 3.68182 6.33333C3.68182 7.34116 4.06972 8.3077 4.7602 9.02034C5.45067 9.73298 6.38716 10.1333 7.36364 10.1333Z" fill="black"/>
</svg>
