<svg width="50" height="51" viewBox="0 0 50 51" fill="none" xmlns="http://www.w3.org/2000/svg">
<path d="M50 10.3L38.5 0.650024L35.275 4.47502L46.775 14.125L50 10.3ZM14.7 4.47502L11.5 0.650024L0 10.275L3.225 14.1L14.7 4.47502ZM26.25 16H22.5V31L34.375 38.125L36.25 35.05L26.25 29.125V16ZM25 6.00002C12.575 6.00002 2.5 16.075 2.5 28.5C2.5 40.925 12.55 51 25 51C30.9674 51 36.6903 48.6295 40.9099 44.4099C45.1295 40.1904 47.5 34.4674 47.5 28.5C47.5 22.5327 45.1295 16.8097 40.9099 12.5901C36.6903 8.37055 30.9674 6.00002 25 6.00002ZM25 46C15.325 46 7.5 38.175 7.5 28.5C7.5 18.825 15.325 11 25 11C34.675 11 42.5 18.825 42.5 28.5C42.5 38.175 34.675 46 25 46Z" fill="black"/>
</svg>
