<svg width="32" height="31" viewBox="0 0 32 31" fill="none" xmlns="http://www.w3.org/2000/svg">
<path d="M9.6665 24.7499C9.21789 24.7499 8.84212 24.6019 8.53917 24.3059C8.23623 24.0099 8.08423 23.644 8.08317 23.2083V7.79159C8.08317 7.35478 8.23517 6.98889 8.53917 6.69392C8.84317 6.39895 9.21895 6.25095 9.6665 6.24992H11.2498C11.6984 6.24992 12.0748 6.39792 12.3788 6.69392C12.6828 6.98992 12.8342 7.35581 12.8332 7.79159V23.2083C12.8332 23.6451 12.6812 24.0115 12.3772 24.3075C12.0732 24.6035 11.6974 24.7509 11.2498 24.7499H9.6665ZM20.7498 24.7499C20.3012 24.7499 19.9254 24.6019 19.6225 24.3059C19.3196 24.0099 19.1676 23.644 19.1665 23.2083V7.79159C19.1665 7.35478 19.3185 6.98889 19.6225 6.69392C19.9265 6.39895 20.3023 6.25095 20.7498 6.24992H22.3332C22.7818 6.24992 23.1581 6.39792 23.4621 6.69392C23.7661 6.98992 23.9176 7.35581 23.9165 7.79159V23.2083C23.9165 23.6451 23.7645 24.0115 23.4605 24.3075C23.1565 24.6035 22.7807 24.7509 22.3332 24.7499H20.7498ZM1.74984 30.9166C1.30123 30.9166 0.925449 30.7686 0.622504 30.4726C0.31956 30.1766 0.167559 29.8107 0.166504 29.3749C0.166504 28.9381 0.318504 28.5722 0.622504 28.2773C0.926504 27.9823 1.30228 27.8343 1.74984 27.8333H30.2498C30.6984 27.8333 31.0748 27.9813 31.3788 28.2773C31.6828 28.5733 31.8342 28.9391 31.8332 29.3749C31.8332 29.8117 31.6812 30.1781 31.3772 30.4741C31.0732 30.7701 30.6974 30.9176 30.2498 30.9166H1.74984ZM1.74984 3.16659C1.30123 3.16659 0.925449 3.01859 0.622504 2.72259C0.31956 2.42659 0.167559 2.0607 0.166504 1.62492C0.166504 1.18811 0.318504 0.822224 0.622504 0.527252C0.926504 0.23228 1.30228 0.0842797 1.74984 0.083252H30.2498C30.6984 0.083252 31.0748 0.231252 31.3788 0.527252C31.6828 0.823252 31.8342 1.18914 31.8332 1.62492C31.8332 2.06172 31.6812 2.42813 31.3772 2.72413C31.0732 3.02013 30.6974 3.16761 30.2498 3.16659H1.74984Z" fill="black"/>
</svg>
