<svg width="72" height="72" viewBox="0 0 72 72" fill="none" xmlns="http://www.w3.org/2000/svg">
<path d="M35.6452 6.425C45.1631 6.425 46.2887 6.4625 50.0533 6.6375C53.5303 6.8 55.4189 7.375 56.6696 7.8625C58.333 8.5125 59.5212 9.275 60.7719 10.525C62.0226 11.775 62.7855 12.9625 63.4359 14.625C63.9237 15.875 64.499 17.7625 64.6616 21.2375C64.8367 25 64.8742 26.125 64.8742 35.6375C64.8742 45.15 64.8367 46.275 64.6616 50.0375C64.499 53.5125 63.9237 55.4 63.4359 56.65C62.7855 58.3125 62.0226 59.5 60.7719 60.75C59.5212 62 58.333 62.7625 56.6696 63.4125C55.4189 63.9 53.5303 64.475 50.0533 64.6375C46.3012 64.8125 45.1631 64.85 35.6452 64.85C26.1273 64.85 25.0016 64.8125 21.237 64.6375C17.76 64.475 15.8715 63.9 14.6208 63.4125C12.9573 62.7625 11.7692 62 10.5185 60.75C9.26774 59.5 8.50481 58.3125 7.85444 56.65C7.36667 55.4 6.79134 53.5125 6.62875 50.0375C6.45365 46.275 6.41613 45.15 6.41613 35.6375C6.41613 26.125 6.45365 25 6.62875 21.2375C6.79134 17.7625 7.36667 15.875 7.85444 14.625C8.50481 12.9625 9.26774 11.775 10.5185 10.525C11.7692 9.275 12.9573 8.5 14.6208 7.8625C15.8715 7.375 17.76 6.8 21.237 6.6375C25.0016 6.4625 26.1273 6.425 35.6452 6.425ZM35.6452 0C25.9647 0 24.7515 0.0374999 20.9494 0.2125C17.1597 0.3875 14.5582 0.9875 12.2945 1.8625C9.95563 2.775 7.96701 3.9875 5.97838 5.975C4.00226 7.95 2.77657 9.9375 1.86355 12.2875C0.988059 14.55 0.375212 17.1375 0.21262 20.9375C0.0375212 24.7375 0 25.95 0 35.625C0 45.3 0.0375212 46.5125 0.21262 50.3125C0.387719 54.1 0.988059 56.7 1.86355 58.9625C2.77657 61.3 3.98976 63.2875 5.97838 65.275C7.9545 67.25 9.94313 68.475 12.2945 69.3875C14.5582 70.2625 17.1472 70.875 20.9494 71.0375C24.7515 71.2125 25.9647 71.25 35.6452 71.25C45.3256 71.25 46.5388 71.2125 50.341 71.0375C54.1306 70.8625 56.7321 70.2625 58.9959 69.3875C61.3347 68.475 63.3233 67.2625 65.312 65.275C67.3006 63.2875 68.5138 61.3125 69.4268 58.9625C70.3023 56.7 70.9151 54.1125 71.0777 50.3125C71.2528 46.5125 71.2903 45.3 71.2903 35.625C71.2903 25.95 71.2528 24.7375 71.0777 20.9375C70.9026 17.15 70.3023 14.55 69.4268 12.2875C68.5138 9.95 67.3006 7.9625 65.312 5.975C63.3233 3.9875 61.3472 2.775 58.9959 1.8625C56.7321 0.9875 54.1431 0.375 50.341 0.2125C46.5388 0.0374999 45.3256 0 35.6452 0ZM35.6452 17.325C25.5395 17.325 17.3348 25.5125 17.3348 35.625C17.3348 45.7375 25.5269 53.9125 35.6452 53.9125C45.7634 53.9125 53.9555 45.725 53.9555 35.625C53.9555 25.525 45.7634 17.325 35.6452 17.325ZM35.6452 47.5C29.079 47.5 23.7634 42.1875 23.7634 35.625C23.7634 29.0625 29.079 23.75 35.6452 23.75C42.2114 23.75 47.5269 29.0625 47.5269 35.625C47.5269 42.1875 42.2114 47.5 35.6452 47.5ZM54.6684 12.3375C52.3046 12.3375 50.391 14.25 50.391 16.6125C50.391 18.975 52.3046 20.8875 54.6684 20.8875C57.0323 20.8875 58.9459 18.975 58.9459 16.6125C58.9459 14.25 57.0323 12.3375 54.6684 12.3375Z" fill="url(#paint0_linear_30_546)"/>
<defs>
<linearGradient id="paint0_linear_30_546" x1="35.6452" y1="7.05" x2="35.6452" y2="68.2125" gradientUnits="userSpaceOnUse">
<stop stop-color="white"/>
<stop offset="1" stop-color="#D5E5F2"/>
</linearGradient>
</defs>
</svg>
