<svg width="121" height="121" viewBox="0 0 121 121" fill="none" xmlns="http://www.w3.org/2000/svg">
<path d="M0 33.5228H26.6135V120.529H0V33.5228ZM102.104 38.8967C107.392 41.7969 111.743 46.1898 115.155 52.0755C118.567 57.9612 120.273 63.9749 120.273 70.1164V120.529H93.4033V70.1164C93.4033 68.7516 92.8915 67.2162 91.8679 65.5103C90.8443 63.8043 89.906 62.6954 89.053 62.1836C87.6882 61.3306 85.8116 60.9041 83.4232 60.9041C81.0348 60.9041 79.1582 61.2453 77.7934 61.9277L66.7897 67.3016V120.529H39.9203V33.5228H66.7897V37.6172C72.0783 35.2288 78.0493 34.1199 84.7027 34.2905C91.3561 34.4611 97.1565 35.9965 102.104 38.8967ZM13.3068 0C17.06 0 20.2161 1.2795 22.775 3.83849C25.334 6.39749 26.6135 9.55358 26.6135 13.3068C26.6135 17.06 25.334 20.2587 22.775 22.903C20.2161 25.5473 17.06 26.8694 13.3068 26.8694C9.55358 26.8694 6.39749 25.5473 3.83849 22.903C1.2795 20.2587 0 17.06 0 13.3068C0 9.55358 1.2795 6.39749 3.83849 3.83849C6.39749 1.2795 9.55358 0 13.3068 0Z" fill="black"/>
</svg>
