<svg width="41" height="41" viewBox="0 0 41 41" fill="none" xmlns="http://www.w3.org/2000/svg">
<g clip-path="url(#clip0_121_751)">
<path d="M20.5 3.41675C24.5777 3.41675 28.4884 5.03661 31.3718 7.91998C34.2551 10.8034 35.875 14.714 35.875 18.7917C35.875 24.0432 33.0118 28.3413 29.9949 31.4249C28.4873 32.9485 26.8427 34.3301 25.0818 35.5522L24.354 36.0476L24.0123 36.2748L23.3683 36.6848L22.7943 37.035L22.0836 37.4485C21.601 37.7231 21.0553 37.8676 20.5 37.8676C19.9447 37.8676 19.399 37.7231 18.9164 37.4485L18.2057 37.035L17.3174 36.4884L16.9894 36.2748L16.289 35.8085C14.3893 34.5226 12.6196 33.0545 11.0051 31.4249C7.98817 28.3396 5.125 24.0432 5.125 18.7917C5.125 14.714 6.74486 10.8034 9.62823 7.91998C12.5116 5.03661 16.4223 3.41675 20.5 3.41675ZM20.5 13.6667C19.827 13.6667 19.1605 13.7993 18.5387 14.0569C17.917 14.3144 17.352 14.6919 16.8761 15.1678C16.4002 15.6437 16.0227 16.2087 15.7651 16.8305C15.5076 17.4523 15.375 18.1187 15.375 18.7917C15.375 19.4648 15.5076 20.1312 15.7651 20.753C16.0227 21.3748 16.4002 21.9398 16.8761 22.4157C17.352 22.8916 17.917 23.2691 18.5387 23.5266C19.1605 23.7842 19.827 23.9167 20.5 23.9167C21.8592 23.9167 23.1628 23.3768 24.1239 22.4157C25.085 21.4545 25.625 20.151 25.625 18.7917C25.625 17.4325 25.085 16.1289 24.1239 15.1678C23.1628 14.2067 21.8592 13.6667 20.5 13.6667Z" fill="black"/>
</g>
<defs>
<clipPath id="clip0_121_751">
<rect width="41" height="41" fill="white"/>
</clipPath>
</defs>
</svg>
