<svg width="216" height="77" viewBox="0 0 216 77" fill="none" xmlns="http://www.w3.org/2000/svg">
<g clip-path="url(#clip0_1_8)">
<path d="M0.598022 30.6106L30.8899 0.723053L48.5774 17.6391V10.861L54.3945 15.6668V24.2046L61.6597 30.6106V48.4889L30.4554 20.8979L0.598022 46.8887" fill="white"/>
<path d="M0.598022 52.7578L14.1678 66.1014L31.1313 38.0798L47.6071 66.1014L61.6597 52.0933V76.2446H0.598022V52.7578Z" fill="white"/>
<path d="M90.3923 50.4612H79.2989L77.5225 55.8678H69.9435L80.6989 25.2519H89.0841L99.8395 55.8678H92.1784L90.4019 50.4612H90.3923ZM88.5289 44.7038L84.8456 33.4973L81.2058 44.7038H88.5289Z" fill="white"/>
<path d="M109.798 39.6215H106.535V55.8678H100.472V39.6215H98.2754V34.0767H100.472V33.4494C100.472 30.7701 101.167 28.734 102.562 27.3411C103.957 25.9483 105.999 25.2519 108.698 25.2519C109.147 25.2519 109.48 25.2678 109.692 25.2891V30.9508C108.534 30.8711 107.718 31.0572 107.245 31.4984C106.772 31.9396 106.535 32.7371 106.535 33.88V34.0767H109.798V39.6215Z" fill="white"/>
<path d="M118.661 34.8795C119.724 34.1884 120.906 33.8428 122.205 33.8428V40.9133H120.539C119.028 40.9133 117.889 41.2695 117.136 41.9872C116.378 42.7049 116.002 43.9595 116.002 45.7564V55.8677H109.938V34.0767H116.002V37.7077C116.711 36.5115 117.599 35.5653 118.661 34.8742V34.8795Z" fill="white"/>
<path d="M122.866 30.7807C122.19 30.0896 121.857 29.239 121.857 28.2236C121.857 27.2082 122.195 26.3151 122.866 25.6293C123.537 24.9435 124.411 24.5927 125.473 24.5927C126.535 24.5927 127.37 24.9382 128.046 25.6293C128.722 26.3204 129.055 27.187 129.055 28.2236C129.055 29.2603 128.717 30.0896 128.046 30.7807C127.375 31.4718 126.516 31.8174 125.473 31.8174C124.43 31.8174 123.542 31.4718 122.866 30.7807ZM128.485 34.0821V55.8731H122.422V34.0767H128.485V34.0821Z" fill="white"/>
<path d="M142.277 55.8678L136.248 46.7292V55.8678H130.184V26.969H136.248V42.9388L142.238 34.0767H149.721L141.495 45.0121L149.793 55.8678H142.277Z" fill="white"/>
<path d="M149.846 30.7807C149.171 30.0896 148.837 29.239 148.837 28.2236C148.837 27.2082 149.175 26.3151 149.846 25.6293C150.517 24.9435 151.391 24.5927 152.453 24.5927C153.515 24.5927 154.35 24.9382 155.026 25.6293C155.702 26.3204 156.035 27.187 156.035 28.2236C156.035 29.2603 155.697 30.0896 155.026 30.7807C154.355 31.4718 153.496 31.8174 152.453 31.8174C151.41 31.8174 150.522 31.4718 149.846 30.7807ZM155.465 34.0821V55.8731H149.402V34.0767H155.465V34.0821Z" fill="white"/>
<path d="M174.775 36.3202C176.156 37.9735 176.851 40.2435 176.851 43.1355V55.8677H170.821V44.0339C170.821 42.5773 170.479 41.445 169.793 40.6369C169.108 39.8288 168.186 39.4248 167.027 39.4248C165.869 39.4248 164.946 39.8288 164.261 40.6369C163.576 41.445 163.233 42.5773 163.233 44.0339V55.8677H157.17V34.0767H163.233V36.9687C163.846 36.0065 164.676 35.2463 165.714 34.6828C166.752 34.1246 167.925 33.8428 169.224 33.8428C171.541 33.8428 173.39 34.6722 174.775 36.3202Z" fill="white"/>
<path d="M189.561 34.7041C190.614 35.326 191.425 36.1501 191.99 37.1654V34.0821H198.053V55.8305C198.053 57.8347 197.691 59.6529 196.971 61.2796C196.252 62.9064 195.151 64.2035 193.674 65.1657C192.197 66.128 190.358 66.6117 188.161 66.6117C185.231 66.6117 182.856 65.8515 181.036 64.3258C179.216 62.8054 178.174 60.7374 177.918 58.1378H183.908C184.097 58.9724 184.546 59.6263 185.255 60.1101C185.965 60.5885 186.839 60.8331 187.877 60.8331C189.127 60.8331 190.126 60.4343 190.874 59.6422C191.618 58.8448 191.99 57.5796 191.99 55.8358V52.7525C191.401 53.7679 190.585 54.5919 189.542 55.2298C188.499 55.8677 187.283 56.1867 185.888 56.1867C184.256 56.1867 182.779 55.7242 181.456 54.7992C180.133 53.8742 179.086 52.5611 178.318 50.8546C177.551 49.1481 177.165 47.1758 177.165 44.9377C177.165 42.6996 177.551 40.7326 178.318 39.0421C179.086 37.3515 180.133 36.049 181.456 35.14C182.779 34.2309 184.256 33.7737 185.888 33.7737C187.283 33.7737 188.504 34.0874 189.557 34.7094L189.561 34.7041ZM190.73 41.0303C189.89 40.0681 188.866 39.5843 187.664 39.5843C186.462 39.5843 185.434 40.0574 184.599 41.009C183.759 41.9606 183.339 43.2684 183.339 44.9324C183.339 46.5963 183.759 47.9201 184.599 48.8982C185.439 49.8764 186.462 50.3602 187.664 50.3602C188.866 50.3602 189.89 49.8817 190.73 48.9142C191.57 47.952 191.99 46.6389 191.99 44.9696C191.99 43.3003 191.57 41.9872 190.73 41.025V41.0303Z" fill="white"/>
<path d="M203.194 55.2032C201.847 54.5546 200.78 53.6615 200.003 52.5292C199.226 51.3968 198.786 50.1263 198.69 48.7228H204.681C204.753 49.4777 205.072 50.0891 205.637 50.5569C206.201 51.0247 206.901 51.2586 207.727 51.2586C208.485 51.2586 209.069 51.0938 209.479 50.7695C209.894 50.4452 210.102 50.0199 210.102 49.499C210.102 48.8717 209.807 48.4145 209.214 48.1114C208.62 47.8084 207.664 47.4788 206.341 47.1173C204.922 46.7505 203.739 46.3677 202.793 45.9637C201.847 45.5597 201.031 44.9217 200.346 44.0499C199.66 43.178 199.317 41.9978 199.317 40.5146C199.317 39.2653 199.631 38.1277 200.259 37.0963C200.886 36.065 201.808 35.2569 203.025 34.6562C204.241 34.0555 205.69 33.7578 207.37 33.7578C209.851 33.7578 211.806 34.4329 213.24 35.7885C214.669 37.1442 215.489 38.941 215.702 41.1791H210.102C210.005 40.4243 209.706 39.8235 209.199 39.3823C208.692 38.941 208.021 38.7178 207.196 38.7178C206.486 38.7178 205.941 38.8666 205.564 39.1696C205.188 39.4673 204.995 39.8767 204.995 40.3977C204.995 41.0197 205.294 41.4928 205.897 41.8011C206.501 42.1148 207.442 42.4231 208.716 42.7368C210.179 43.1514 211.376 43.5608 212.298 43.9648C213.22 44.3689 214.031 45.0174 214.727 45.9159C215.422 46.8143 215.784 48.0158 215.808 49.5255C215.808 50.8014 215.484 51.9391 214.833 52.9438C214.181 53.9486 213.249 54.7354 212.033 55.3042C210.816 55.8784 209.402 56.1654 207.794 56.1654C206.066 56.1654 204.531 55.8412 203.184 55.1873L203.194 55.2032Z" fill="white"/>
<path d="M115.456 61.8216V69.5726H114.539V66.0586H110.952V69.5726H110.035V61.8216H110.952V65.224H114.539V61.8216H115.456Z" fill="white"/>
<path d="M118.951 69.1421C118.41 68.8071 117.986 68.334 117.672 67.728C117.358 67.1219 117.204 66.4414 117.204 65.6865C117.204 64.9316 117.363 64.2512 117.672 63.6451C117.981 63.0391 118.41 62.5713 118.951 62.231C119.492 61.8961 120.086 61.726 120.737 61.726C121.389 61.726 121.997 61.8961 122.533 62.231C123.074 62.566 123.494 63.0391 123.803 63.6398C124.112 64.2405 124.266 64.921 124.266 65.6865C124.266 66.4521 124.112 67.1325 123.803 67.7333C123.494 68.334 123.069 68.8018 122.533 69.1421C121.992 69.477 121.394 69.6471 120.737 69.6471C120.081 69.6471 119.487 69.477 118.951 69.1421ZM122.065 68.3925C122.461 68.1426 122.77 67.7811 122.992 67.3133C123.214 66.8455 123.33 66.3032 123.33 65.6919C123.33 65.0805 123.219 64.5276 122.992 64.0651C122.765 63.6026 122.461 63.2464 122.07 62.9912C121.679 62.7361 121.234 62.6138 120.737 62.6138C120.24 62.6138 119.796 62.7414 119.405 62.9912C119.014 63.2411 118.705 63.6026 118.483 64.0651C118.256 64.5276 118.145 65.0699 118.145 65.6919C118.145 66.3139 118.256 66.8508 118.483 67.3133C118.71 67.7811 119.019 68.1426 119.41 68.3925C119.801 68.6423 120.245 68.7699 120.737 68.7699C121.23 68.7699 121.669 68.6423 122.065 68.3925Z" fill="white"/>
<path d="M133.148 61.875V69.5675H132.231V63.8314L129.909 69.5675H129.262L126.931 63.8207V69.5675H126.014V61.875H127.003L129.586 68.2332L132.169 61.875H133.148Z" fill="white"/>
<path d="M136.146 62.6456V65.2346H138.71V66.0693H136.146V68.738H139.014V69.5726H135.229V61.811H139.014V62.6456H136.146Z" fill="white"/>
<path d="M141.915 69.3762C141.548 69.1954 141.258 68.9402 141.051 68.6213C140.843 68.297 140.737 67.9248 140.727 67.5049H141.707C141.741 67.8664 141.876 68.1747 142.118 68.4246C142.354 68.6744 142.707 68.7967 143.16 68.7967C143.614 68.7967 143.943 68.6744 144.194 68.4352C144.445 68.196 144.57 67.8823 144.57 67.5049C144.57 67.2072 144.498 66.9679 144.348 66.7819C144.198 66.5958 144.015 66.4576 143.793 66.3566C143.571 66.2556 143.271 66.1545 142.895 66.0429C142.432 65.91 142.06 65.7771 141.78 65.6442C141.5 65.5113 141.263 65.2986 141.061 65.0169C140.858 64.7351 140.761 64.347 140.761 63.8633C140.761 63.4433 140.858 63.0659 141.056 62.7416C141.254 62.4173 141.524 62.1621 141.876 61.9867C142.229 61.8112 142.634 61.7209 143.093 61.7209C143.754 61.7209 144.295 61.9016 144.715 62.2631C145.135 62.6246 145.371 63.1084 145.425 63.7091H144.416C144.382 63.4114 144.242 63.1509 143.991 62.9276C143.74 62.7044 143.411 62.5874 143.001 62.5874C142.615 62.5874 142.306 62.699 142.06 62.917C141.818 63.135 141.698 63.4433 141.698 63.8367C141.698 64.1185 141.77 64.347 141.915 64.5278C142.06 64.7032 142.238 64.8415 142.451 64.9318C142.663 65.0222 142.963 65.1285 143.344 65.2508C143.807 65.3943 144.184 65.5326 144.464 65.6655C144.749 65.8037 144.99 66.011 145.193 66.2981C145.396 66.5852 145.497 66.9732 145.497 67.4623C145.497 67.8398 145.405 68.196 145.222 68.5309C145.038 68.8658 144.773 69.1369 144.416 69.3443C144.058 69.5516 143.638 69.6579 143.156 69.6579C142.673 69.6579 142.277 69.5675 141.91 69.3868L141.915 69.3762Z" fill="white"/>
<path d="M151.522 68.7488H153.983V69.5728H150.599V61.8219H151.517V68.7488H151.522Z" fill="white"/>
<path d="M159.82 61.8219V62.6459H157.903V69.5728H156.986V62.6459H155.055V61.8219H159.82Z" fill="white"/>
<path d="M165.661 62.295C166.221 62.6087 166.655 63.0605 166.955 63.6453C167.254 64.2301 167.404 64.9212 167.404 65.7133C167.404 66.5054 167.254 67.1965 166.955 67.776C166.655 68.3554 166.226 68.802 165.661 69.1103C165.096 69.4187 164.435 69.5728 163.667 69.5728H161.476V61.8219H163.667C164.435 61.8219 165.101 61.9813 165.661 62.295ZM165.748 67.9461C166.226 67.4145 166.467 66.6702 166.467 65.7186C166.467 64.767 166.226 64.0015 165.743 63.4592C165.26 62.917 164.57 62.6459 163.667 62.6459H162.393V68.7382H163.667C164.575 68.7382 165.27 68.4724 165.748 67.9408V67.9461Z" fill="white"/>
</g>
<defs>
<clipPath id="clip0_1_8">
<rect width="215.219" height="75.5216" fill="white" transform="translate(0.598022 0.723053)"/>
</clipPath>
</defs>
</svg>
