<svg width="220" height="70" viewBox="0 0 220 70" fill="none" xmlns="http://www.w3.org/2000/svg">
<g clip-path="url(#clip0_25_290)">
<path d="M0 27.7024L30.9647 0L49.0452 15.6793V9.39673L54.9914 13.8512V21.7647L62.418 27.7024V44.2735L30.5206 18.6998L0 42.7904" fill="#0B1B3B"/>
<path d="M0 48.2308L13.8712 60.5988L31.2114 34.626L48.0533 60.5988L62.418 47.6149V70.0005H0V48.2308Z" fill="#F59B20"/>
<path d="M91.7888 46.1015H80.4491L78.6331 51.1128H70.8858L81.8801 22.7354H90.4515L101.446 51.1128H93.6146L91.7987 46.1015H91.7888ZM89.884 40.7651L86.1189 30.3779L82.3982 40.7651H89.884Z" fill="#F59B20"/>
<path d="M111.626 36.0544H108.29V51.1128H102.092V36.0544H99.847V30.915H102.092V30.3336C102.092 27.8501 102.803 25.9629 104.229 24.6719C105.655 23.3809 107.742 22.7354 110.501 22.7354C110.96 22.7354 111.3 22.7501 111.517 22.7698V28.0176C110.333 27.9437 109.499 28.1162 109.016 28.5252C108.532 28.9341 108.29 29.6733 108.29 30.7327V30.915H111.626V36.0544Z" fill="#F59B20"/>
<path d="M120.686 31.6591C121.772 31.0185 122.981 30.6982 124.308 30.6982V37.2518H122.605C121.061 37.2518 119.896 37.582 119.127 38.2472C118.352 38.9124 117.967 40.0753 117.967 41.7408V51.1129H111.769V30.9151H117.967V34.2805C118.692 33.1718 119.6 32.2947 120.686 31.6542V31.6591Z" fill="#F59B20"/>
<path d="M124.984 27.8596C124.293 27.2191 123.953 26.4307 123.953 25.4895C123.953 24.5484 124.298 23.7205 124.984 23.0849C125.67 22.4492 126.563 22.124 127.649 22.124C128.734 22.124 129.588 22.4443 130.279 23.0849C130.97 23.7255 131.31 24.5286 131.31 25.4895C131.31 26.4504 130.965 27.2191 130.279 27.8596C129.593 28.5002 128.715 28.8205 127.649 28.8205C126.583 28.8205 125.675 28.5002 124.984 27.8596ZM130.728 30.9196V51.1174H124.53V30.9147H130.728V30.9196Z" fill="#F59B20"/>
<path d="M144.826 51.112L138.663 42.6417V51.112H132.465V24.3262H138.663V39.1284L144.787 30.9142H152.435L144.027 41.0501L152.509 51.112H144.826Z" fill="#F59B20"/>
<path d="M152.564 27.8596C151.873 27.2191 151.532 26.4307 151.532 25.4895C151.532 24.5484 151.878 23.7205 152.564 23.0849C153.249 22.4492 154.143 22.124 155.228 22.124C156.314 22.124 157.168 22.4443 157.858 23.0849C158.549 23.7255 158.89 24.5286 158.89 25.4895C158.89 26.4504 158.544 27.2191 157.858 27.8596C157.172 28.5002 156.294 28.8205 155.228 28.8205C154.162 28.8205 153.254 28.5002 152.564 27.8596ZM158.307 30.9196V51.1174H152.11V30.9147H158.307V30.9196Z" fill="#F59B20"/>
<path d="M178.046 32.9945C179.457 34.5269 180.168 36.6309 180.168 39.3115V51.1129H174.004V40.1443C174.004 38.7941 173.654 37.7446 172.953 36.9956C172.253 36.2466 171.31 35.8721 170.126 35.8721C168.942 35.8721 167.999 36.2466 167.298 36.9956C166.598 37.7446 166.247 38.7941 166.247 40.1443V51.1129H160.049V30.9151H166.247V33.5956C166.874 32.7037 167.723 31.9991 168.784 31.4768C169.845 30.9594 171.044 30.6982 172.371 30.6982C174.74 30.6982 176.63 31.4669 178.046 32.9945Z" fill="#F59B20"/>
<path d="M193.161 31.4961C194.236 32.0726 195.065 32.8364 195.643 33.7775V30.9196H201.841V51.078C201.841 52.9356 201.471 54.6208 200.735 56.1287C200 57.6365 198.875 58.8388 197.365 59.7307C195.855 60.6225 193.975 61.0709 191.73 61.0709C188.734 61.0709 186.306 60.3663 184.446 58.9521C182.586 57.5379 181.52 55.626 181.258 53.2165H187.382C187.575 53.9901 188.034 54.5962 188.759 55.0446C189.484 55.4881 190.378 55.7147 191.438 55.7147C192.717 55.7147 193.738 55.3452 194.503 54.611C195.263 53.8719 195.643 52.6991 195.643 51.0829V48.225C195.041 49.1661 194.207 49.9299 193.141 50.5212C192.075 51.1125 190.831 51.4081 189.405 51.4081C187.737 51.4081 186.227 50.9794 184.875 50.122C183.523 49.2647 182.453 48.0476 181.668 46.4658C180.883 44.8841 180.489 43.056 180.489 40.9815C180.489 38.9071 180.883 37.0839 181.668 35.5169C182.453 33.95 183.523 32.7428 184.875 31.9002C186.227 31.0576 187.737 30.6338 189.405 30.6338C190.831 30.6338 192.08 30.9245 193.156 31.501L193.161 31.4961ZM194.355 37.3598C193.496 36.4679 192.45 36.0195 191.221 36.0195C189.993 36.0195 188.942 36.4581 188.088 37.3401C187.229 38.2221 186.8 39.4343 186.8 40.9766C186.8 42.5189 187.229 43.7459 188.088 44.6525C188.946 45.5592 189.993 46.0076 191.221 46.0076C192.45 46.0076 193.496 45.5641 194.355 44.6673C195.213 43.7754 195.643 42.5583 195.643 41.0111C195.643 39.4639 195.213 38.2468 194.355 37.3549V37.3598Z" fill="#F59B20"/>
<path d="M207.096 50.4967C205.719 49.8955 204.629 49.0677 203.834 48.0181C203.04 46.9686 202.591 45.7909 202.492 44.49H208.616C208.69 45.1897 209.016 45.7564 209.593 46.19C210.17 46.6236 210.886 46.8405 211.73 46.8405C212.504 46.8405 213.101 46.6877 213.521 46.3871C213.945 46.0865 214.157 45.6923 214.157 45.2095C214.157 44.628 213.856 44.2042 213.249 43.9234C212.643 43.6425 211.665 43.337 210.313 43.0019C208.863 42.6619 207.654 42.3072 206.686 41.9327C205.719 41.5582 204.885 40.9669 204.185 40.1588C203.484 39.3507 203.133 38.2568 203.133 36.882C203.133 35.724 203.454 34.6695 204.096 33.7136C204.737 32.7577 205.68 32.0087 206.923 31.4519C208.167 30.8951 209.647 30.6191 211.364 30.6191C213.901 30.6191 215.899 31.2449 217.365 32.5014C218.826 33.758 219.664 35.4234 219.882 37.4979H214.157C214.059 36.7982 213.753 36.2414 213.235 35.8324C212.717 35.4234 212.031 35.2165 211.187 35.2165C210.461 35.2165 209.904 35.3545 209.519 35.6353C209.134 35.9113 208.937 36.2907 208.937 36.7736C208.937 37.3501 209.243 37.7886 209.859 38.0744C210.476 38.3652 211.438 38.651 212.741 38.9417C214.236 39.326 215.46 39.7054 216.403 40.0799C217.345 40.4544 218.174 41.0556 218.885 41.8883C219.595 42.7211 219.965 43.8347 219.99 45.2341C219.99 46.4167 219.66 47.4712 218.993 48.4025C218.327 49.3338 217.375 50.063 216.131 50.5903C214.888 51.1224 213.442 51.3885 211.799 51.3885C210.032 51.3885 208.463 51.088 207.086 50.4819L207.096 50.4967Z" fill="#F59B20"/>
<path d="M117.409 56.6318V63.8161H116.472V60.5591H112.805V63.8161H111.868V56.6318H112.805V59.7854H116.472V56.6318H117.409Z" fill="#0B1B3B"/>
<path d="M120.982 63.4168C120.429 63.1064 119.995 62.6678 119.674 62.1061C119.354 61.5444 119.196 60.9137 119.196 60.214C119.196 59.5142 119.359 58.8835 119.674 58.3218C119.99 57.7601 120.429 57.3264 120.982 57.0111C121.535 56.7006 122.142 56.543 122.808 56.543C123.474 56.543 124.096 56.7006 124.643 57.0111C125.196 57.3215 125.625 57.7601 125.941 58.3169C126.257 58.8737 126.415 59.5044 126.415 60.214C126.415 60.9235 126.257 61.5542 125.941 62.111C125.625 62.6678 125.191 63.1015 124.643 63.4168C124.091 63.7273 123.479 63.8849 122.808 63.8849C122.137 63.8849 121.53 63.7273 120.982 63.4168ZM124.165 62.722C124.569 62.4905 124.885 62.1554 125.112 61.7218C125.339 61.2881 125.458 60.7855 125.458 60.2189C125.458 59.6522 125.344 59.1398 125.112 58.7111C124.88 58.2824 124.569 57.9522 124.17 57.7157C123.77 57.4792 123.316 57.3659 122.808 57.3659C122.3 57.3659 121.846 57.4841 121.446 57.7157C121.046 57.9473 120.73 58.2824 120.503 58.7111C120.271 59.1398 120.158 59.6424 120.158 60.2189C120.158 60.7954 120.271 61.2931 120.503 61.7218C120.735 62.1554 121.051 62.4905 121.451 62.722C121.85 62.9536 122.304 63.0719 122.808 63.0719C123.311 63.0719 123.76 62.9536 124.165 62.722Z" fill="#0B1B3B"/>
<path d="M135.495 56.6807V63.8108H134.557V58.494L132.184 63.8108H131.522L129.139 58.4841V63.8108H128.201V56.6807H129.213L131.853 62.5739L134.493 56.6807H135.495Z" fill="#0B1B3B"/>
<path d="M138.559 57.3957V59.7954H141.179V60.569H138.559V63.0426H141.49V63.8162H137.622V56.6221H141.49V57.3957H138.559Z" fill="#0B1B3B"/>
<path d="M144.456 63.6337C144.081 63.4661 143.785 63.2296 143.573 62.934C143.36 62.6334 143.252 62.2885 143.242 61.8992H144.244C144.278 62.2343 144.416 62.5201 144.663 62.7517C144.905 62.9833 145.265 63.0966 145.729 63.0966C146.193 63.0966 146.529 62.9833 146.785 62.7615C147.042 62.5398 147.17 62.2491 147.17 61.8992C147.17 61.6233 147.096 61.4015 146.943 61.2291C146.79 61.0566 146.603 60.9285 146.376 60.8349C146.149 60.7412 145.843 60.6476 145.458 60.5441C144.984 60.421 144.604 60.2978 144.318 60.1746C144.032 60.0514 143.79 59.8543 143.583 59.5931C143.375 59.332 143.277 58.9723 143.277 58.5239C143.277 58.1346 143.375 57.7847 143.578 57.4842C143.78 57.1836 144.056 56.9471 144.416 56.7845C144.777 56.6219 145.191 56.5381 145.66 56.5381C146.336 56.5381 146.889 56.7056 147.318 57.0407C147.747 57.3758 147.989 57.8242 148.043 58.381H147.012C146.978 58.105 146.834 57.8636 146.578 57.6566C146.321 57.4497 145.986 57.3413 145.566 57.3413C145.171 57.3413 144.856 57.4447 144.604 57.6468C144.357 57.8488 144.234 58.1346 144.234 58.4992C144.234 58.7604 144.308 58.9723 144.456 59.1398C144.604 59.3024 144.787 59.4305 145.004 59.5143C145.221 59.5981 145.527 59.6966 145.917 59.8099C146.39 59.943 146.775 60.0711 147.061 60.1943C147.353 60.3224 147.599 60.5146 147.807 60.7807C148.014 61.0467 148.117 61.4065 148.117 61.8598C148.117 62.2096 148.024 62.5398 147.836 62.8502C147.649 63.1606 147.377 63.4119 147.012 63.6041C146.647 63.7963 146.218 63.8948 145.724 63.8948C145.231 63.8948 144.826 63.8111 144.451 63.6435L144.456 63.6337Z" fill="#0B1B3B"/>
<path d="M154.276 63.0524H156.792V63.8161H153.333V56.6318H154.271V63.0524H154.276Z" fill="#0B1B3B"/>
<path d="M162.758 56.6318V57.3956H160.799V63.8161H159.862V57.3956H157.888V56.6318H162.758Z" fill="#0B1B3B"/>
<path d="M168.729 57.0704C169.302 57.3611 169.746 57.7799 170.052 58.322C170.358 58.864 170.511 59.5046 170.511 60.2388C170.511 60.973 170.358 61.6135 170.052 62.1506C169.746 62.6877 169.307 63.1016 168.729 63.3874C168.152 63.6732 167.476 63.8161 166.691 63.8161H164.451V56.6318H166.691C167.476 56.6318 168.157 56.7797 168.729 57.0704ZM168.818 62.3083C169.307 61.8156 169.553 61.1257 169.553 60.2437C169.553 59.3617 169.307 58.6521 168.813 58.1495C168.32 57.6469 167.614 57.3956 166.691 57.3956H165.389V63.0425H166.691C167.619 63.0425 168.33 62.7961 168.818 62.3034V62.3083Z" fill="#0B1B3B"/>
</g>
<defs>
<clipPath id="clip0_25_290">
<rect width="220" height="70" fill="white"/>
</clipPath>
</defs>
</svg>
