<svg width="47" height="37" viewBox="0 0 47 37" fill="none" xmlns="http://www.w3.org/2000/svg">
<path fill-rule="evenodd" clip-rule="evenodd" d="M2.85912 2.94262C0.625 5.1742 0.625 8.77066 0.625 15.9585V21.0418C0.625 28.2297 0.625 31.8261 2.85912 34.0577C5.09071 36.2918 8.68717 36.2918 15.875 36.2918H31.125C38.3128 36.2918 41.9093 36.2918 44.1409 34.0577C46.375 31.8261 46.375 28.2297 46.375 21.0418V15.9585C46.375 8.77066 46.375 5.1742 44.1409 2.94262C41.9093 0.708497 38.3128 0.708496 31.125 0.708496H15.875C8.68717 0.708496 5.09071 0.708497 2.85912 2.94262ZM9.66062 8.7605C9.09978 8.38637 8.41329 8.25037 7.75217 8.38241C7.09105 8.51444 6.50946 8.90369 6.13533 9.46454C5.76121 10.0254 5.62521 10.7119 5.75724 11.373C5.88928 12.0341 6.27853 12.6157 6.83938 12.9898L20.6813 22.2161C21.5161 22.7723 22.4968 23.0691 23.5 23.0691C24.5032 23.0691 25.4839 22.7723 26.3187 22.2161L40.1606 12.9898C40.7215 12.6157 41.1107 12.0341 41.2428 11.373C41.3748 10.7119 41.2388 10.0254 40.8647 9.46454C40.4905 8.90369 39.909 8.51444 39.2478 8.38241C38.5867 8.25037 37.9002 8.38637 37.3394 8.7605L23.5 17.9867L9.66062 8.7605Z" fill="#F59B20"/>
</svg>
