<svg width="56" height="56" viewBox="0 0 56 56" fill="none" xmlns="http://www.w3.org/2000/svg">
<path d="M35.3593 43.8383H38.5V40.6977H35.3593V43.8383ZM40.4296 43.8383H43.5703V40.6977H40.4296V43.8383ZM45.5 43.8383H48.6406V40.6977H45.5V43.8383ZM9.33331 46.6663V9.33301H46.6666V26.9847C46.2575 26.8447 45.8655 26.7303 45.4906 26.6417C45.1173 26.5546 44.7315 26.4675 44.3333 26.3803V11.6663H11.6666V44.333H26.32C26.3775 44.7686 26.4506 45.1738 26.5393 45.5487C26.628 45.922 26.7423 46.2946 26.8823 46.6663H9.33331ZM11.6666 41.9997V44.333V11.6663V26.3803V26.2053V41.9997ZM17.5 37.963H26.74C26.8255 37.5632 26.9422 37.1767 27.09 36.8033L27.5566 35.6273H17.5V37.963ZM17.5 29.1663H32.8533C33.6202 28.6281 34.3746 28.1716 35.1166 27.7967C35.8618 27.4233 36.6605 27.1309 37.513 26.9193V26.833H17.5V29.1663ZM17.5 20.3697H38.5V18.0363H17.5V20.3697ZM42 51.6037C39.4006 51.6037 37.1949 50.6983 35.3826 48.8877C33.5704 47.077 32.6651 44.8704 32.6666 42.268C32.6666 39.6702 33.572 37.4652 35.3826 35.653C37.1933 33.8408 39.3991 32.9347 42 32.9347C44.5993 32.9347 46.8051 33.8408 48.6173 35.653C50.4295 37.4652 51.3349 39.6702 51.3333 42.268C51.3333 44.8689 50.428 47.0747 48.6173 48.8853C46.8035 50.696 44.5978 51.6037 42 51.6037Z" fill="#747272"/>
</svg>
