<svg width="37" height="37" viewBox="0 0 37 37" fill="none" xmlns="http://www.w3.org/2000/svg">
<path d="M6.16666 27.7497C6.16666 26.1142 6.81636 24.5457 7.97284 23.3892C9.12931 22.2327 10.6978 21.583 12.3333 21.583H24.6667C26.3022 21.583 27.8707 22.2327 29.0272 23.3892C30.1836 24.5457 30.8333 26.1142 30.8333 27.7497C30.8333 28.5674 30.5085 29.3517 29.9302 29.9299C29.352 30.5082 28.5677 30.833 27.75 30.833H9.25C8.43225 30.833 7.64799 30.5082 7.06975 29.9299C6.49151 29.3517 6.16666 28.5674 6.16666 27.7497Z" stroke="black" stroke-linejoin="round"/>
<path d="M18.5 15.4165C21.0543 15.4165 23.125 13.3458 23.125 10.7915C23.125 8.23719 21.0543 6.1665 18.5 6.1665C15.9457 6.1665 13.875 8.23719 13.875 10.7915C13.875 13.3458 15.9457 15.4165 18.5 15.4165Z" stroke="black"/>
</svg>
