<svg width="76" height="76" viewBox="0 0 76 76" fill="none" xmlns="http://www.w3.org/2000/svg">
<rect width="76" height="76" rx="13" fill="#0B1B3B"/>
<path d="M36.6719 28.9688V42.375C36.6699 44.3138 35.8988 46.1726 34.5279 47.5435C33.1569 48.9144 31.2982 49.6855 29.3594 49.6875C29.0361 49.6875 28.7261 49.5591 28.4976 49.3305C28.269 49.102 28.1406 48.792 28.1406 48.4688C28.1406 48.1455 28.269 47.8355 28.4976 47.607C28.7261 47.3784 29.0361 47.25 29.3594 47.25C30.6523 47.25 31.8923 46.7364 32.8065 45.8221C33.7208 44.9079 34.2344 43.6679 34.2344 42.375V41.1562H25.0938C24.4473 41.1562 23.8273 40.8994 23.3702 40.4423C22.9131 39.9852 22.6562 39.3652 22.6562 38.7188V28.9688C22.6562 28.3223 22.9131 27.7023 23.3702 27.2452C23.8273 26.7881 24.4473 26.5312 25.0938 26.5312H34.2344C34.8808 26.5312 35.5008 26.7881 35.9579 27.2452C36.4151 27.7023 36.6719 28.3223 36.6719 28.9688ZM51.9062 26.5312H42.7656C42.1192 26.5312 41.4992 26.7881 41.0421 27.2452C40.5849 27.7023 40.3281 28.3223 40.3281 28.9688V38.7188C40.3281 39.3652 40.5849 39.9852 41.0421 40.4423C41.4992 40.8994 42.1192 41.1562 42.7656 41.1562H51.9062V42.375C51.9062 43.6679 51.3926 44.9079 50.4784 45.8221C49.5642 46.7364 48.3242 47.25 47.0312 47.25C46.708 47.25 46.398 47.3784 46.1695 47.607C45.9409 47.8355 45.8125 48.1455 45.8125 48.4688C45.8125 48.792 45.9409 49.102 46.1695 49.3305C46.398 49.5591 46.708 49.6875 47.0312 49.6875C48.97 49.6855 50.8288 48.9144 52.1997 47.5435C53.5707 46.1726 54.3417 44.3138 54.3438 42.375V28.9688C54.3438 28.3223 54.0869 27.7023 53.6298 27.2452C53.1727 26.7881 52.5527 26.5313 51.9062 26.5312Z" fill="#F59B20"/>
</svg>
