<svg width="31" height="29" viewBox="0 0 31 29" fill="none" xmlns="http://www.w3.org/2000/svg">
<path d="M25.2188 9.48351L30.4676 14.5957L29.3482 15.6856L24.0978 10.575C23.6249 10.982 23.0771 11.2831 22.4543 11.4784C21.8316 11.6737 21.194 11.7713 20.5417 11.7713C18.8876 11.7713 17.489 11.2158 16.3458 10.1048C15.2058 8.99274 14.6358 7.63145 14.6358 6.02092C14.6358 4.4104 15.2058 3.04859 16.3458 1.93551C17.489 0.825508 18.8876 0.270508 20.5417 0.270508C22.1957 0.270508 23.5943 0.825508 24.7375 1.93551C25.8775 3.04859 26.4475 4.4104 26.4475 6.02092C26.4475 6.71467 26.3372 7.35036 26.1166 7.92797C25.8949 8.50455 25.5957 9.02204 25.2188 9.48351ZM20.5417 10.2297C21.7513 10.2297 22.7742 9.82216 23.6102 9.00713C24.4472 8.19313 24.8657 7.19722 24.8657 6.01938C24.8657 4.84155 24.4472 3.84563 23.6102 3.03163C22.7742 2.2166 21.7513 1.80909 20.5417 1.80909C19.332 1.80909 18.3092 2.2166 17.4732 3.03163C16.6361 3.84563 16.2176 4.84155 16.2176 6.01938C16.2176 7.19722 16.6361 8.19313 17.4732 9.00713C18.3092 9.82216 19.332 10.2297 20.5417 10.2297ZM3.30708 28.3751C2.57875 28.3751 1.97075 28.1377 1.48308 27.6628C0.994361 27.187 0.75 26.5945 0.75 25.8853V6.19822C0.75 5.48905 0.994361 4.89705 1.48308 4.42222C1.97075 3.94635 2.57875 3.70842 3.30708 3.70842H11.8333C11.6856 4.07431 11.5942 4.48902 11.5594 4.95255C11.5246 5.41505 11.5072 5.83233 11.5072 6.20438C11.5072 8.65049 12.3812 10.6973 14.1292 12.3448C15.8772 13.9924 18.0279 14.8166 20.5812 14.8177C21.0425 14.8177 21.5086 14.7853 21.9793 14.7205C22.4501 14.6558 22.9288 14.5566 23.4154 14.423L26.0833 16.8434V25.8853C26.0833 26.5945 25.8395 27.1865 25.3518 27.6613C24.8631 28.1372 24.2546 28.3751 23.5262 28.3751H3.30708Z" fill="black"/>
</svg>
