<svg width="51" height="51" viewBox="0 0 51 51" fill="none" xmlns="http://www.w3.org/2000/svg">
<path d="M13.48 31.8593C12.817 31.8593 12.1811 32.127 11.7122 32.6037C11.2434 33.0804 10.98 33.7268 10.98 34.4009V38.9302C7.7577 35.2255 5.97934 30.4505 5.98 25.5051C5.97892 24.7576 6.02233 24.0106 6.11 23.2684C6.1577 22.9331 6.139 22.5916 6.05498 22.2637C5.97097 21.9359 5.82334 21.6285 5.62078 21.3595C5.41822 21.0905 5.16482 20.8654 4.87546 20.6974C4.5861 20.5294 4.26664 20.422 3.93583 20.3813C3.60503 20.3406 3.26957 20.3676 2.94917 20.4606C2.62877 20.5537 2.3299 20.7109 2.07012 20.923C1.81035 21.1352 1.5949 21.398 1.43646 21.696C1.27802 21.994 1.17978 22.3213 1.1475 22.6584C1.03459 23.603 0.978651 24.5536 0.980004 25.5051C0.983416 31.57 3.12754 37.4322 7.0225 42.0259H3.48C2.81696 42.0259 2.18108 42.2937 1.71224 42.7704C1.2434 43.247 0.980004 43.8935 0.980004 44.5676C0.980004 45.2417 1.2434 45.8882 1.71224 46.3648C2.18108 46.8415 2.81696 47.1093 3.48 47.1093H13.48C13.871 47.1041 14.2551 47.0041 14.6003 46.8175C14.9456 46.631 15.2421 46.3632 15.465 46.0367C15.4925 45.9986 15.53 45.9681 15.5575 45.9274C15.575 45.902 15.575 45.8715 15.59 45.8461C15.7091 45.6417 15.7983 45.4208 15.855 45.1903C15.8925 45.0606 15.9193 44.928 15.935 44.7938C15.9425 44.7176 15.98 44.6489 15.98 44.5676V34.4009C15.98 33.7268 15.7166 33.0804 15.2478 32.6037C14.7789 32.127 14.143 31.8593 13.48 31.8593ZM17.23 10.2551H12.7725C16.4174 6.97891 21.1149 5.17093 25.98 5.17176C26.7154 5.17012 27.4501 5.21511 28.18 5.30647C28.8387 5.38736 29.5021 5.19889 30.0241 4.78254C30.5462 4.36618 30.8842 3.75603 30.9638 3.08632C31.0433 2.41661 30.8579 1.7422 30.4484 1.21144C30.0389 0.680685 29.4387 0.337066 28.78 0.256175C27.8509 0.142567 26.9158 0.0865467 25.98 0.0884246C20.0145 0.0918931 14.2484 2.27175 9.73001 6.23163V2.63009C9.73001 1.956 9.46661 1.30952 8.99777 0.832861C8.52893 0.356206 7.89305 0.0884246 7.23 0.0884246C6.56696 0.0884246 5.93108 0.356206 5.46224 0.832861C4.9934 1.30952 4.73 1.956 4.73 2.63009V12.7968C4.74543 12.965 4.77811 13.1311 4.8275 13.2924C4.88778 13.606 5.0075 13.9047 5.18 14.1718L5.21 14.215C5.37491 14.4588 5.58151 14.6706 5.82 14.8403C5.8475 14.8606 5.8625 14.8911 5.89 14.9114C5.925 14.9368 5.965 14.9445 6.0025 14.9648C6.14482 15.0516 6.29563 15.1232 6.45251 15.1783C6.66303 15.2529 6.88252 15.2983 7.105 15.313C7.15 15.313 7.185 15.3384 7.23 15.3384H17.23C17.893 15.3384 18.5289 15.0706 18.9978 14.594C19.4666 14.1173 19.73 13.4708 19.73 12.7968C19.73 12.1227 19.4666 11.4762 18.9978 10.9995C18.5289 10.5229 17.893 10.2551 17.23 10.2551ZM47.13 37.7153C47.0695 37.4025 46.9498 37.1047 46.7775 36.8384L46.75 36.7952C46.5844 36.5511 46.3769 36.3393 46.1375 36.1699C46.11 36.1496 46.0975 36.1191 46.0675 36.0988C46.0425 36.081 46.01 36.081 45.9825 36.0632C45.6653 35.8834 45.3175 35.7661 44.9575 35.7175C44.8775 35.7099 44.81 35.6718 44.73 35.6718H34.73C34.067 35.6718 33.4311 35.9395 32.9622 36.4162C32.4934 36.8929 32.23 37.5393 32.23 38.2134C32.23 38.8875 32.4934 39.534 32.9622 40.0107C33.4311 40.4873 34.067 40.7551 34.73 40.7551H39.185C35.5409 44.0309 30.8443 45.8389 25.98 45.8384C25.2446 45.8392 24.5098 45.7934 23.78 45.7012C23.1213 45.6203 22.4579 45.8088 21.9359 46.2251C21.4138 46.6415 21.0758 47.2516 20.9963 47.9213C20.9167 48.591 21.1021 49.2654 21.5116 49.7962C21.9211 50.327 22.5213 50.6706 23.18 50.7515C24.1092 50.8651 25.0442 50.9219 25.98 50.9218C31.9455 50.9183 37.7116 48.7384 42.23 44.7785V48.3801C42.23 49.0542 42.4934 49.7007 42.9622 50.1773C43.4311 50.654 44.067 50.9218 44.73 50.9218C45.393 50.9218 46.0289 50.654 46.4978 50.1773C46.9666 49.7007 47.23 49.0542 47.23 48.3801V38.2134C47.2138 38.0451 47.1803 37.8765 47.13 37.7153ZM48.48 8.98426C49.143 8.98426 49.7789 8.71648 50.2478 8.23982C50.7166 7.76317 50.98 7.11668 50.98 6.44259C50.98 5.7685 50.7166 5.12202 50.2478 4.64536C49.7789 4.16871 49.143 3.90092 48.48 3.90092H38.48C38.3171 3.9171 38.1562 3.95031 38 4.00005L37.9825 4.00259C37.6794 4.0649 37.3909 4.18569 37.1325 4.35842L37.0825 4.39147C36.8436 4.55939 36.6362 4.76943 36.47 5.01163C36.45 5.03705 36.42 5.0523 36.4 5.08026C36.3825 5.10567 36.3825 5.13872 36.365 5.16667C36.1868 5.49131 36.0714 5.84763 36.025 6.21638C36.0175 6.29263 35.98 6.36126 35.98 6.44259V16.6093C35.98 17.2833 36.2434 17.9298 36.7122 18.4065C37.1811 18.8831 37.817 19.1509 38.48 19.1509C39.143 19.1509 39.7789 18.8831 40.2478 18.4065C40.7166 17.9298 40.98 17.2833 40.98 16.6093V12.0775C44.2023 15.7832 45.9806 20.5589 45.98 25.5051C45.9803 26.2527 45.936 26.9996 45.8475 27.7418C45.7684 28.4106 45.9535 29.0841 46.3622 29.6144C46.7709 30.1447 47.3698 30.4886 48.0275 30.5706C48.1287 30.5827 48.2306 30.5886 48.3325 30.5884C48.9428 30.5873 49.5317 30.3593 49.988 29.9473C50.4444 29.5353 50.7368 28.9678 50.81 28.3518C50.9237 27.4073 50.9805 26.4566 50.98 25.5051C50.9766 19.4402 48.8325 13.578 44.9375 8.98426H48.48Z" fill="black"/>
</svg>
