<svg width="42" height="42" viewBox="0 0 42 42" fill="none" xmlns="http://www.w3.org/2000/svg">
<path d="M5.25 6.98775C5.25 6.02875 6.02875 5.25 6.98775 5.25H35.0122C35.9713 5.25 36.75 6.02875 36.75 6.98775V35.0122C36.7495 35.473 36.5663 35.9147 36.2405 36.2405C35.9147 36.5663 35.473 36.7495 35.0122 36.75H6.98775C6.52687 36.75 6.08487 36.5669 5.75898 36.241C5.43308 35.9151 5.25 35.4731 5.25 35.0122V6.98775ZM18.5885 14.7262C18.4832 14.656 18.3608 14.6156 18.2343 14.6094C18.1079 14.6032 17.9821 14.6314 17.8704 14.691C17.7587 14.7506 17.6653 14.8394 17.6 14.9479C17.5348 15.0565 17.5002 15.1806 17.5 15.3072V26.6928C17.5002 26.8194 17.5348 26.9435 17.6 27.0521C17.6653 27.1606 17.7587 27.2494 17.8704 27.309C17.9821 27.3686 18.1079 27.3968 18.2343 27.3906C18.3608 27.3844 18.4832 27.344 18.5885 27.2738L27.1268 21.5828C27.2224 21.5186 27.3008 21.4319 27.355 21.3302C27.4092 21.2286 27.4375 21.1152 27.4375 21C27.4375 20.8848 27.4092 20.7714 27.355 20.6698C27.3008 20.5681 27.2224 20.4814 27.1268 20.4172L18.5885 14.7262Z" fill="#FFFDFD"/>
</svg>
