<svg width="61" height="61" viewBox="0 0 61 61" fill="none" xmlns="http://www.w3.org/2000/svg">
<path d="M30.5 32.4078C31.5535 32.4078 32.4075 31.5538 32.4075 30.5003C32.4075 29.4468 31.5535 28.5928 30.5 28.5928C29.4465 28.5928 28.5925 29.4468 28.5925 30.5003C28.5925 31.5538 29.4465 32.4078 30.5 32.4078Z" stroke="black" stroke-linecap="round" stroke-linejoin="round"/>
<path d="M30.5 41.1646C36.39 41.1646 41.1648 36.3898 41.1648 30.4998C41.1648 24.6098 36.39 19.835 30.5 19.835C24.61 19.835 19.8351 24.6098 19.8351 30.4998C19.8351 36.3898 24.61 41.1646 30.5 41.1646Z" stroke="black" stroke-linecap="round" stroke-linejoin="round"/>
<path d="M30.5 48.2076C41.8104 48.2076 55.2813 37.8122 55.2813 30.4998C55.2813 23.1874 41.8104 12.792 30.5 12.792M30.5 48.2076C19.1896 48.2076 5.71875 37.8122 5.71875 30.4998C5.71875 23.1874 19.1896 12.792 30.5 12.792" stroke="black" stroke-linecap="round" stroke-linejoin="round"/>
</svg>
